#!OML:ASF I:\Actors\actors\Patient Classification 2\Patient 1\Session 1\actor1.ASF
:FULLY-SPECIFIED
:DEGREES
551
root 0.498006 18.7045 5.36297 3.48515 -4.94621 3.85727
lowerback 14.5447 -4.15557 9.29538
upperback 5.74571 -4.10511 2.87059
thorax -2.43493 -1.96929 -1.50369
lowerneck -5.78435 -7.90795 -9.24128
upperneck 35.0943 -10.3319 0.840672
head 13.3401 -5.63048 0.57684
rclavicle -2.38542e-015 1.27222e-014
rhumerus -36.0631 -27.2233 -33.4565
rradius 45.6004
rwrist -20.6473
rhand -2.75469 -52.0605
rfingers 7.12502
rthumb 22.9494 -440.715
lclavicle -2.38542e-015 1.27222e-014
lhumerus -52.9575 -53.1715 117.852
lradius 98.0853
lwrist 27.2055
lhand 21.9839 -3.04793
lfingers 7.12502
lthumb 46.3785 19.8873
rfemur 0 0 0
rtibia 0
rfoot 0 0
rtoes 0
lfemur -9.61187 6.67089 -21.7035
ltibia 22.9669
lfoot -18.2547 2.78364
ltoes -52.7629
552
root 0.466612 18.7051 5.38268 3.36672 -4.9398 3.71532
lowerback 14.3879 -4.21956 8.94824
upperback 5.74342 -4.25897 2.7922
thorax -2.35423 -2.04626 -1.37769
lowerneck -6.04698 -7.57824 -8.92068
upperneck 34.9688 -9.87601 0.816341
head 13.2827 -5.39684 0.571425
rclavicle 1.35174e-014 5.08889e-014
rhumerus -38.1701 -28.0744 -30.7675
rradius 44.6158
rwrist -17.2999
rhand -4.30433 -50.8688
rfingers 7.12502
rthumb 21.4617 -439.7
lclavicle 1.35174e-014 5.08889e-014
lhumerus -52.9104 -53.0391 117.699
lradius 98.0958
lwrist 27.1213
lhand 21.9998 -2.84855
lfingers 7.12502
lthumb 46.3933 20.0804
rfemur 0 0 0
rtibia 0
rfoot 0 0
rtoes 0
lfemur -9.32629 6.40662 -21.4406
ltibia 22.8746
lfoot -18.3366 3.03101
ltoes -52.6099
553
root 0.432115 18.7044 5.39968 3.23712 -4.90113 3.57121
lowerback 14.3199 -4.28182 8.63535
upperback 5.67821 -4.39059 2.67252
thorax -2.38986 -2.11645 -1.30971
lowerneck -6.2719 -7.24122 -8.60557
upperneck 34.8792 -9.43375 0.847185
head 13.2399 -5.16385 0.586856
rclavicle 3.18055e-015 -3.18055e-015
rhumerus -40.3721 -28.9187 -28.1102
rradius 43.9698
rwrist -13.0987
rhand -5.74187 -50.4417
rfingers 7.12502
rthumb 20.0805 -439.424
lclavicle 3.18055e-015 -3.18055e-015
lhumerus -52.9707 -52.9126 117.605
lradius 98.0913
lwrist 27.1164
lhand 22.0094 -2.75138
lfingers 7.12502
lthumb 46.4021 20.1738
rfemur 0 0 0
rtibia 0
rfoot 0 0
rtoes 0
lfemur -9.03484 6.17131 -21.1653
ltibia 22.77
lfoot -18.419 3.20757
ltoes -52.7429
554
root 0.396186 18.7038 5.41913 3.10569 -4.83037 3.42909
lowerback 14.2636 -4.34159 8.42399
upperback 5.55611 -4.50271 2.46124
thorax -2.50344 -2.1784 -1.39352
lowerneck -6.35975 -6.88708 -8.12821
upperneck 34.7373 -9.01165 0.885355
head 13.1368 -4.92036 0.582167
rclavicle 3.97569e-015 -2.06736e-014
rhumerus -42.6125 -29.6763 -25.5692
rradius 43.6084
rwrist -8.69011
rhand -7.09294 -50.9391
rfingers 7.12502
rthumb 18.7814 -440.052
lclavicle 3.97569e-015 -2.06736e-014
lhumerus -53.265 -52.8128 117.558
lradius 98.0872
lwrist 27.0986
lhand 21.9226 -2.6059
lfingers 7.12502
lthumb 46.3217 20.3535
rfemur 0 0 0
rtibia 0
rfoot 0 0
rtoes 0
lfemur -8.72854 5.89042 -20.888
ltibia 22.658
lfoot -18.5124 3.44048
ltoes -52.9668
555
root 0.359806 18.7048 5.43911 2.99054 -4.72996 3.26956
lowerback 14.1306 -4.35867 8.22909
upperback 5.4458 -4.56662 2.25142
thorax -2.56002 -2.21451 -1.499
lowerneck -6.43526 -6.52153 -7.47769
upperneck 34.5294 -8.5636 0.803653
head 12.9866 -4.65709 0.506596
rclavicle 5.88403e-014 -1.11319e-014
rhumerus -44.6924 -30.1886 -23.216
rradius 43.5636
rwrist -4.92544
rhand -8.42709 -51.6494
rfingers 7.12502
rthumb 17.4979 -440.882
lclavicle 5.88403e-014 -1.11319e-014
lhumerus -53.6318 -52.773 117.588
lradius 98.0811
lwrist 27.0992
lhand 21.817 -2.44443
lfingers 7.12502
lthumb 46.2238 20.5563
rfemur 0 0 0
rtibia 0
rfoot 0 0
rtoes 0
lfemur -8.43992 5.49714 -20.5953
ltibia 22.5453
lfoot -18.6208 3.79143
ltoes -53.1315
556
root 0.322729 18.7065 5.45715 2.86909 -4.64618 3.09419
lowerback 13.9583 -4.35686 7.96982
upperback 5.3733 -4.61888 2.10409
thorax -2.54457 -2.24316 -1.51002
lowerneck -6.61581 -6.12388 -6.86519
upperneck 34.3068 -8.03099 0.653822
head 12.8532 -4.36734 0.417064
rclavicle -4.92986e-014 5.725e-014
rhumerus -46.3179 -30.428 -21.2459
rradius 43.9027
rwrist -1.91935
rhand -9.51494 -52.8077
rfingers 7.12502
rthumb 16.4507 -442.13
lclavicle -4.92986e-014 5.725e-014
lhumerus -53.8164 -52.6479 117.579
lradius 98.0654
lwrist 27.0589
lhand 21.784 -2.28447
lfingers 7.12502
lthumb 46.1933 20.7292
rfemur 0 0 0
rtibia 0
rfoot 0 0
rtoes 0
lfemur -8.15592 5.09402 -20.2841
ltibia 22.4364
lfoot -18.7435 4.16541
ltoes -53.2935
557
root 0.284973 18.7077 5.4745 2.74886 -4.60989 2.90894
lowerback 13.7538 -4.37733 7.64327
upperback 5.29684 -4.7101 2.00281
thorax -2.51022 -2.29166 -1.43109
lowerneck -6.79194 -5.65426 -6.33125
upperneck 34.0589 -7.37052 0.468063
head 12.7122 -4.03562 0.343122
rclavicle 4.8901e-014 -1.11319e-014
rhumerus -47.3895 -30.3972 -19.8719
rradius 44.6198
rwrist 0.497791
rhand -10.4908 -53.8333
rfingers 7.12502
rthumb 15.511 -443.231
lclavicle 4.8901e-014 -1.11319e-014
lhumerus -53.9454 -52.269 117.519
lradius 98.0387
lwrist 26.9556
lhand 21.6505 -2.10962
lfingers 7.12502
lthumb 46.0694 20.956
rfemur 0 0 0
rtibia 0
rfoot 0 0
rtoes 0
lfemur -7.87138 4.71158 -19.9618
ltibia 22.3439
lfoot -18.9015 4.51967
ltoes -53.3114
558
root 0.247131 18.7088 5.49114 2.63467 -4.60856 2.72552
lowerback 13.5727 -4.38084 7.28801
upperback 5.18869 -4.77713 1.90847
thorax -2.51643 -2.33007 -1.3305
lowerneck -6.98388 -5.18421 -5.85895
upperneck 33.8667 -6.7275 0.360184
head 12.6125 -3.70921 0.304
rclavicle -2.98177e-014 -3.81667e-014
rhumerus -48.129 -30.1177 -19.0533
rradius 45.6542
rwrist 2.39166
rhand -11.7075 -53.5939
rfingers 7.12502
rthumb 14.3389 -443.079
lclavicle -2.98177e-014 -3.81667e-014
lhumerus -54.1783 -51.8411 117.542
lradius 97.9769
lwrist 26.955
lhand 21.2686 -1.96193
lfingers 7.12502
lthumb 45.715 21.2503
rfemur 0 0 0
rtibia 0
rfoot 0 0
rtoes 0
lfemur -7.60475 4.39915 -19.6492
ltibia 22.2724
lfoot -19.0552 4.86791
ltoes -53.4041
559
root 0.209133 18.7099 5.50654 2.53928 -4.61906 2.52184
lowerback 13.4004 -4.34551 6.96222
upperback 5.07434 -4.7873 1.81051
thorax -2.53096 -2.34017 -1.25877
lowerneck -7.24944 -4.77546 -5.46009
upperneck 33.6978 -6.19016 0.35679
head 12.555 -3.42402 0.299746
rclavicle -1.86858e-014 -3.18055e-015
rhumerus -48.5745 -29.6569 -18.753
rradius 46.9178
rwrist 3.71564
rhand -13.1253 -52.5944
rfingers 7.12502
rthumb 12.9724 -442.171
lclavicle -1.86858e-014 -3.18055e-015
lhumerus -54.3555 -51.5149 117.588
lradius 97.8615
lwrist 27.0196
lhand 20.6114 -1.88007
lfingers 7.12502
lthumb 45.1042 21.5783
rfemur 0 0 0
rtibia 0
rfoot 0 0
rtoes 0
lfemur -7.38 4.10407 -19.3193
ltibia 22.2185
lfoot -19.1897 5.24943
ltoes -53.6291
560
root 0.17007 18.7113 5.52186 2.46722 -4.6364 2.32601
lowerback 13.1493 -4.27118 6.60842
upperback 4.95639 -4.7556 1.7222
thorax -2.50054 -2.32876 -1.17378
lowerneck -7.44746 -4.40905 -4.94237
upperneck 33.3934 -5.67291 0.14764
head 12.419 -3.1571 0.197889
rclavicle 7.15625e-015 3.4191e-014
rhumerus -48.8197 -28.9878 -18.8826
rradius 48.3701
rwrist 4.68993
rhand -14.8792 -51.5707
rfingers 7.12502
rthumb 11.2812 -441.247
lclavicle 7.15625e-015 3.4191e-014
lhumerus -54.4447 -51.1852 117.632
lradius 97.688
lwrist 27.1028
lhand 20.0248 -1.78121
lfingers 7.12502
lthumb 44.5581 21.8903
rfemur 0 0 0
rtibia 0
rfoot 0 0
rtoes 0
lfemur -7.18556 3.83411 -18.991
ltibia 22.1738
lfoot -19.3299 5.58267
ltoes -53.8127
561
root 0.129844 18.7121 5.53669 2.35476 -4.63014 2.13984
lowerback 12.9221 -4.1772 6.2471
upperback 4.83193 -4.69467 1.63623
thorax -2.4868 -2.30313 -1.08457
lowerneck -7.5054 -4.07171 -4.16922
upperneck 32.8775 -5.15245 -0.380909
head 12.153 -2.89579 -0.0612025
rclavicle 3.02153e-014 -5.56597e-015
rhumerus -49.06 -28.066 -19.3555
rradius 49.96
rwrist 5.98985
rhand -17.2831 -50.2383
rfingers 7.12502
rthumb 8.96221 -440.028
lclavicle 3.02153e-014 -5.56597e-015
lhumerus -54.5607 -50.7799 117.68
lradius 97.5169
lwrist 27.197
lhand 19.8035 -1.74893
lfingers 7.12502
lthumb 44.352 22.0014
rfemur 0 0 0
rtibia 0
rfoot 0 0
rtoes 0
lfemur -6.94182 3.55005 -18.6624
ltibia 22.1265
lfoot -19.4988 5.86669
ltoes -53.9349
562
root 0.0890484 18.7113 5.55023 2.21881 -4.59424 1.96814
lowerback 12.7573 -4.09656 5.86155
upperback 4.68165 -4.64609 1.55401
thorax -2.53246 -2.2849 -0.9701
lowerneck -7.70068 -3.77538 -4.03601
upperneck 32.6346 -4.77609 -0.244546
head 12.0831 -2.69559 0.013234
rclavicle -5.20816e-014 7.15625e-015
rhumerus -49.1432 -27.0949 -20.1446
rradius 51.3019
rwrist 8.24009
rhand -20.2376 -48.4289
rfingers 7.12502
rthumb 6.11038 -438.321
lclavicle -5.20816e-014 7.15625e-015
lhumerus -54.6487 -50.2344 117.671
lradius 97.3157
lwrist 27.2685
lhand 19.5587 -1.92127
lfingers 7.12502
lthumb 44.1238 21.9153
rfemur 0 0 0
rtibia 0
rfoot 0 0
rtoes 0
lfemur -6.671 3.18574 -18.3517
ltibia 22.0689
lfoot -19.6658 6.19505
ltoes -54.0171
563
root 0.046685 18.711 5.56256 2.12969 -4.56744 1.86315
lowerback 12.5756 -4.00628 5.32757
upperback 4.48723 -4.6009 1.48426
thorax -2.60368 -2.26966 -0.759008
lowerneck -7.82606 -3.48361 -3.85719
upperneck 32.363 -4.38577 -0.216039
head 11.9831 -2.49672 0.0428296
rclavicle -7.73272e-014 3.33958e-014
rhumerus -48.8286 -26.1482 -21.2073
rradius 51.9016
rwrist 11.0721
rhand -23.3996 -46.8098
rfingers 7.12502
rthumb 3.05718 -436.768
lclavicle -7.73272e-014 3.33958e-014
lhumerus -54.611 -49.5925 117.593
lradius 97.0309
lwrist 27.4573
lhand 19.1427 -2.0705
lfingers 7.12502
lthumb 43.7357 21.9103
rfemur 0 0 0
rtibia 0
rfoot 0 0
rtoes 0
lfemur -6.46521 2.92197 -18.1127
ltibia 21.9947
lfoot -19.7522 6.49796
ltoes -54.2973
564
root 0.0020612 18.7113 5.57413 2.04645 -4.59038 1.71463
lowerback 12.3808 -3.87616 4.76356
upperback 4.28033 -4.50549 1.43708
thorax -2.67413 -2.22889 -0.515543
lowerneck -7.91103 -3.20861 -3.71285
upperneck 32.1014 -4.03422 -0.12679
head 11.8835 -2.31168 0.0964938
rclavicle -3.69739e-014 3.18055e-015
rhumerus -48.0416 -25.1677 -22.4584
rradius 51.5769
rwrist 13.7537
rhand -26.0624 -46.8433
rfingers 7.12502
rthumb 0.485507 -436.822
lclavicle -3.69739e-014 3.18055e-015
lhumerus -54.5191 -48.9536 117.488
lradius 96.7123
lwrist 27.806
lhand 18.8829 -2.10488
lfingers 7.12502
lthumb 43.493 21.9645
rfemur 0 0 0
rtibia 0
rfoot 0 0
rtoes 0
lfemur -6.26076 2.78048 -17.8157
ltibia 21.9022
lfoot -19.7966 6.77106
ltoes -54.7032
565
root -0.0424535 18.7104 5.58517 1.94605 -4.68033 1.52883
lowerback 12.1355 -3.667 4.25157
upperback 4.10595 -4.30326 1.37116
thorax -2.6847 -2.13287 -0.340286
lowerneck -7.94125 -2.9974 -3.41142
upperneck 31.7778 -3.77788 -0.130889
head 11.7443 -2.1608 0.0777145
rclavicle -3.598e-014 -9.54166e-015
rhumerus -46.8987 -24.4396 -23.6754
rradius 50.4501
rwrist 15.9104
rhand -26.985 -48.7761
rfingers 7.12502
rthumb -0.405605 -438.755
lclavicle -3.598e-014 -9.54166e-015
lhumerus -54.3904 -48.4967 117.367
lradius 96.349
lwrist 28.2765
lhand 18.6596 -2.08868
lfingers 7.12502
lthumb 43.2845 22.056
rfemur 0 0 0
rtibia 0
rfoot 0 0
rtoes 0
lfemur -6.00842 2.63614 -17.4851
ltibia 21.7977
lfoot -19.9018 7.06663
ltoes -54.8802
